<?xml version="1.0" encoding="UTF-8" standalone="no"?>
<!-- Created with Inkscape (http://www.inkscape.org/) -->

<svg
   version="1.1"
   id="svg2"
   xml:space="preserve"
   width="450.18668"
   height="231.73334"
   viewBox="0 0 450.18668 231.73334"
   sodipodi:docname="street kind logo_black.eps"
   xmlns:inkscape="http://www.inkscape.org/namespaces/inkscape"
   xmlns:sodipodi="http://sodipodi.sourceforge.net/DTD/sodipodi-0.dtd"
   xmlns="http://www.w3.org/2000/svg"
   xmlns:svg="http://www.w3.org/2000/svg"><defs
     id="defs6" /><sodipodi:namedview
     id="namedview4"
     pagecolor="#ffffff"
     bordercolor="#666666"
     borderopacity="1.0"
     inkscape:pageshadow="2"
     inkscape:pageopacity="0.0"
     inkscape:pagecheckerboard="0" /><g
     id="g8"
     inkscape:groupmode="layer"
     inkscape:label="ink_ext_XXXXXX"
     transform="matrix(1.3333333,0,0,-1.3333333,0,231.73333)"><g
       id="g10"
       transform="scale(0.1)"><path
         d="M 3375.29,0 H 1.18359 V 955.98 H 3375.29 V 0"
         style="fill:#231f20;fill-opacity:1;fill-rule:nonzero;stroke:none"
         id="path12" /><path
         d="M 705.441,579.68 848.934,659.531 1159.62,185.309 H 962.027 Z M 558.313,489.672 912.781,964.422 H 1122.54 L 579.586,298.91 Z M 457.984,964.422 H 624.582 V 185.309 H 457.984 v 779.113"
         style="fill:#ffffff;fill-opacity:1;fill-rule:nonzero;stroke:none"
         id="path14" /><path
         d="m 1235.62,741.512 h 166.6 V 185.309 h -166.6 z m 0,222.91 h 166.6 V 817.605 h -166.6 v 146.817"
         style="fill:#ffffff;fill-opacity:1;fill-rule:nonzero;stroke:none"
         id="path16" /><path
         d="m 1922.06,522.359 c 0,27.129 -8.82,48.223 -26.45,63.223 -17.63,15 -42.66,22.508 -75.08,22.508 -30.82,0 -54.63,-7.59 -71.45,-22.77 -16.82,-15.191 -25.23,-36.531 -25.23,-64.031 l -12.77,123.242 c 19.05,35.008 41.85,61.258 68.41,78.77 26.53,17.496 59.88,26.25 100.01,26.25 66.47,0 117.95,-19.742 154.44,-59.211 36.47,-39.481 54.71,-95.301 54.71,-167.449 V 185.309 h -166.59 z m -364.81,219.153 h 166.6 V 185.309 h -166.6 v 556.203"
         style="fill:#ffffff;fill-opacity:1;fill-rule:nonzero;stroke:none"
         id="path18" /><path
         d="m 2593.29,964.422 h 166.58 V 185.309 H 2593.29 Z M 2332.15,205.68 c -31.82,18.922 -56.03,46.351 -72.65,82.25 -16.62,35.898 -24.93,79.211 -24.93,129.941 v 88.938 c 0,51.082 8.31,94.851 24.93,131.281 16.62,36.449 40.83,64.121 72.65,83.058 31.81,18.934 70.02,28.403 114.61,28.403 33.65,0 64.34,-8.844 92.12,-26.52 27.75,-17.691 50.15,-42.781 67.19,-75.293 L 2593.29,524.5 c 0,18.93 -3.64,35.012 -10.94,48.23 -7.3,13.2 -17.93,23.301 -31.92,30.258 -13.99,6.973 -30.91,10.453 -50.77,10.453 -31.22,0 -55.44,-9.363 -72.65,-28.121 -17.23,-18.761 -25.85,-45.109 -25.85,-79.039 v -88.41 c 0,-33.223 8.62,-58.941 25.85,-77.172 17.21,-18.211 41.43,-27.32 72.65,-27.32 19.86,0 36.78,3.391 50.77,10.18 13.99,6.781 24.62,16.613 31.92,29.472 7.3,12.86 10.94,28.399 10.94,46.617 l 8.5,-127 c -12.97,-30.359 -32.81,-53.847 -59.58,-70.457 -26.75,-16.609 -58.58,-24.921 -95.45,-24.921 -44.59,0 -82.8,9.468 -114.61,28.41"
         style="fill:#ffffff;fill-opacity:1;fill-rule:nonzero;stroke:none"
         id="path20" /><path
         d="m 210.121,957.582 c -40.859,7.469 -79.246,18.398 -115.164,32.801 -35.9375,14.407 -43.6953,6.14 -72.0273,26.407 l 68.7891,85.6 c 63.0042,-44.82 94.2692,74.14 105.4762,52.74 25.227,-48.15 90.633,-68.99 138.27,-68.99 55.019,0 97.715,8.09 128.105,24.27 30.379,16.18 45.575,39.04 45.575,68.56 v 0.53 c 0,20.62 -6.778,36.99 -20.321,49.08 -13.554,12.09 -31.211,20.98 -52.969,26.68 -21.769,5.68 -49.687,10.84 -83.761,15.47 -1.231,0.35 -2.371,0.53 -3.387,0.53 -1.035,0 -2.16,0.17 -3.391,0.53 l -13.554,1.6 c -59.949,8.18 -109.629,18.41 -149.043,30.68 -39.414,12.27 -72.891,33.79 -100.3909,64.55 -27.5195,30.76 -41.2695,74.41 -41.2695,130.96 v 0.54 c 0,50.15 12.9414,93 38.8086,128.56 25.8598,35.56 63.4378,62.68 112.7068,81.35 49.266,18.67 108.797,28.01 178.614,28.01 32.023,0 64.765,-3.2 98.234,-9.6 33.465,-6.4 66.207,-15.65 98.238,-27.74 32.024,-12.09 62.403,-26.67 91.153,-43.74 l -71.446,-123.77 c -34.488,20.62 -70.527,36.63 -108.094,48.01 -37.57,11.38 -73.593,17.07 -108.085,17.07 -51.739,0 -91.766,-7.38 -120.098,-22.13 -28.34,-14.77 -42.5,-35.48 -42.5,-62.15 v -0.54 c 0,-22.4 7.39,-40.1 22.168,-53.07 14.785,-12.99 33.047,-22.5 54.812,-28.55 21.758,-6.04 52.356,-12.45 91.778,-19.2 1.632,-0.36 3.281,-0.63 4.922,-0.8 1.64,-0.19 3.281,-0.45 4.933,-0.8 2.461,-0.36 4.813,-0.8 7.078,-1.34 2.246,-0.53 4.621,-0.98 7.082,-1.33 56.66,-9.61 103.985,-21.26 141.961,-34.94 37.981,-13.7 69.699,-35.74 95.156,-66.15 25.461,-30.41 38.196,-71.93 38.196,-124.57 v -1.07 c 0,-49.43 -13.352,-91.75 -40.039,-126.96 -26.692,-35.21 -65.594,-62.068 -116.711,-80.557 -51.121,-18.496 -112.617,-27.734 -184.461,-27.734 -42.715,0 -84.485,3.73 -125.344,11.203"
         style="fill:#231f20;fill-opacity:1;fill-rule:nonzero;stroke:none"
         id="path22" /><path
         d="m 869.48,985.727 c -26.082,24.713 -39.109,61.253 -39.109,109.633 v 570.8 h 168.758 v -534.53 c 0,-13.51 3.081,-23.92 9.241,-31.21 6.16,-7.29 15.18,-10.94 27.1,-10.94 h 87.74 V 948.656 H 992.352 c -55.84,0 -96.797,12.352 -122.872,37.071 z M 764.473,1505.06 H 1077.35 V 1380.23 H 764.473 v 124.83"
         style="fill:#231f20;fill-opacity:1;fill-rule:nonzero;stroke:none"
         id="path24" /><path
         d="m 1554.67,1366.9 c -11.92,3.54 -25.67,5.33 -41.26,5.33 -34.09,0 -60.47,-9.52 -79.15,-28.55 -18.68,-19.02 -28.02,-45.43 -28.02,-79.22 l -12.94,144.04 c 17.66,33.07 40.55,58.77 68.68,77.09 28.12,18.31 59.02,27.47 92.69,27.47 26.69,0 50.81,-3.64 72.37,-10.93 21.55,-7.29 40.34,-18.06 56.36,-32.27 l -98.55,-118.97 c -8.22,7.11 -18.28,12.44 -30.18,16.01 z m -329.5,138.16 h 181.07 V 951.32 h -181.07 v 553.74"
         style="fill:#231f20;fill-opacity:1;fill-rule:nonzero;stroke:none"
         id="path26" /><path
         d="m 1867.25,972.395 c -43.73,19.375 -77.1,47.655 -100.09,84.815 -23,37.17 -34.49,81.9 -34.49,134.17 v 62.42 c 0,54.76 10.98,101.54 32.94,140.31 21.97,38.75 54,68.28 96.09,88.55 42.08,20.26 92.9,30.4 152.43,30.4 55.84,0 103.68,-12.09 143.51,-36.27 39.82,-24.19 70.1,-59.31 90.85,-105.36 20.73,-46.07 31.1,-101.63 31.1,-166.71 v -36.28 h -437.3 v 98.69 h 283.32 l -1.84,12.8 c -4.53,32.02 -16.12,56.73 -34.81,74.16 -18.68,17.42 -43.63,26.14 -74.83,26.14 -40.64,0 -72.16,-10.49 -94.54,-31.48 -22.38,-20.98 -33.57,-50.67 -33.57,-89.09 v -70.41 c 0,-37.7 12.22,-66.86 36.66,-87.49 24.42,-20.63 58.6,-30.95 102.54,-30.95 22.58,0 44.97,3.48 67.13,10.41 22.18,6.94 42.29,16.8 60.36,29.61 l 110.25,-84.82 c -33.26,-26.33 -70.63,-46.682 -112.09,-61.084 -41.49,-14.406 -83.36,-21.602 -125.65,-21.602 -61.59,0 -114.24,9.676 -157.97,29.071"
         style="fill:#231f20;fill-opacity:1;fill-rule:nonzero;stroke:none"
         id="path28" /><path
         d="m 2939.21,1026.01 -0.46,0.35 v -0.68 c 0.15,0.11 0.31,0.21 0.46,0.33"
         style="fill:#231f20;fill-opacity:1;fill-rule:nonzero;stroke:none"
         id="path30" /><path
         d="m 2562.57,1267.13 c 1.4,34.77 12.39,62.04 33.28,81.62 22.38,20.99 53.89,31.48 94.55,31.48 31.19,0 56.13,-8.72 74.82,-26.14 18.68,-17.43 30.28,-42.14 34.81,-74.16 l 1.83,-12.8 z m 393.28,-62.41 c 0,65.08 -10.37,120.64 -31.11,166.71 -20.73,46.05 -51.02,81.17 -90.84,105.36 -39.83,24.18 -87.68,36.27 -143.5,36.27 -59.55,0 -110.35,-10.14 -152.44,-30.4 -42.09,-20.27 -74.12,-49.8 -96.08,-88.55 -21.97,-38.77 -32.94,-85.55 -32.94,-140.31 v -62.42 c 0,-52.27 11.48,-97 34.47,-134.17 23.01,-37.16 56.36,-65.44 100.1,-84.815 43.73,-19.395 96.38,-29.071 157.96,-29.071 20.08,0 40.06,1.676 59.95,4.918 v 131.018 c -19.82,-5.52 -39.8,-8.45 -59.95,-8.45 -43.94,0 -78.12,10.32 -102.53,30.95 -19.71,16.64 -31.33,38.93 -35.13,66.68 h 392.04 v 36.28"
         style="fill:#231f20;fill-opacity:1;fill-rule:nonzero;stroke:none"
         id="path32" /><path
         d="m 3159.39,985.727 c -26.07,24.713 -39.11,61.253 -39.11,109.633 v 570.8 h 168.76 v -534.53 c 0,-13.51 3.08,-23.92 9.24,-31.21 6.16,-7.29 15.19,-10.94 27.1,-10.94 h 51.06 V 948.656 h -94.17 c -55.84,0 -96.8,12.352 -122.88,37.071 z m -105.01,519.333 h 312.89 v -124.83 h -312.89 v 124.83"
         style="fill:#231f20;fill-opacity:1;fill-rule:nonzero;stroke:none"
         id="path34" /><path
         d="M 247.645,928.125 0,879.207 v 281.273 l 67.2617,-1.53 180.3833,-230.825"
         style="fill:#231f20;fill-opacity:1;fill-rule:nonzero;stroke:none"
         id="path36" /><path
         d="M 192.609,1019.84 H 22.9297 v 139.88 H 192.609 v -139.88"
         style="fill:#231f20;fill-opacity:1;fill-rule:nonzero;stroke:none"
         id="path38" /></g></g></svg>
